<?xml version="1.0" encoding="utf-8"?>
<!-- Generator: Adobe Illustrator 16.0.0, SVG Export Plug-In . SVG Version: 6.00 Build 0)  -->
<!DOCTYPE svg PUBLIC "-//W3C//DTD SVG 1.1//EN" "http://www.w3.org/Graphics/SVG/1.1/DTD/svg11.dtd">
<svg version="1.1" id="Layer_1" xmlns="http://www.w3.org/2000/svg" xmlns:xlink="http://www.w3.org/1999/xlink" x="0px" y="0px"
	 width="197px" height="38px" viewBox="0 0 197 38" enable-background="new 0 0 197 38" xml:space="preserve">
<g>
	<path fill="#333c76" d="M7.09,5.733h13.415c1.039,0,1.843,0.6,2.412,1.8c0.074,0.31,0.111,0.538,0.111,0.687v0.334
		c0,0.841-0.452,1.559-1.354,2.152c-0.421,0.223-0.86,0.334-1.317,0.334H7.165c-0.693,0-1.107,0.439-1.243,1.317
		c0,0.73,0.569,1.243,1.707,1.54l11.522,4.713c0.507,0.21,1.218,0.761,2.134,1.651c1.188,1.447,1.781,3.043,1.781,4.787
		c0,2.313-1.008,4.262-3.024,5.845c-1.324,0.879-2.678,1.317-4.063,1.317H3.25c-1.15,0-1.979-0.6-2.486-1.8
		c-0.099-0.271-0.148-0.563-0.148-0.872c0-1.249,0.705-2.115,2.115-2.598c0.284-0.024,0.495-0.037,0.631-0.037h12.395
		c0.94,0,1.583-0.451,1.93-1.354c0.049-0.223,0.074-0.402,0.074-0.538v-0.074c0-0.915-0.557-1.564-1.67-1.948
		c-7.447-2.932-11.424-4.502-11.931-4.713c-2.363-1.447-3.544-3.42-3.544-5.919c0-2.276,1.026-4.144,3.08-5.604
		C4.833,6.074,5.964,5.733,7.09,5.733z"/>
	<path fill="#333c76" d="M38.485,5.566c3.525,0,6.643,1.287,9.352,3.859c2.622,2.709,3.934,5.876,3.934,9.5
		c0,3.514-1.287,6.631-3.859,9.352c-2.709,2.623-5.876,3.934-9.5,3.934c-3.513,0-6.63-1.286-9.352-3.859
		c-2.623-2.721-3.934-5.888-3.934-9.5c0-1.385,0.21-2.696,0.631-3.934c0.618-0.94,1.354-1.41,2.208-1.41h0.223
		c1.249,0,2.103,0.724,2.561,2.171c0.024,0.26,0.037,0.458,0.037,0.594c-0.21,1.138-0.315,1.998-0.315,2.579v0.111
		c0,2.66,1.175,4.867,3.525,6.624c1.385,0.903,2.882,1.354,4.49,1.354c2.585,0,4.756-1.138,6.513-3.414
		c0.952-1.447,1.429-2.956,1.429-4.527v-0.223c0-2.362-0.965-4.397-2.895-6.104c-1.472-1.225-3.241-1.837-5.307-1.837H27.89v-0.037
		c1.311-1.645,2.672-2.826,4.082-3.544C33.976,6.129,36.147,5.566,38.485,5.566z"/>
	<path fill="#333c76" d="M57.615,5.678h13.378c1.967,0.235,2.949,0.94,2.949,2.115v1.28c0,1.076-0.939,1.744-2.82,2.004H57.04
		c-1.806-0.321-2.709-1.218-2.709-2.69C54.331,6.754,55.425,5.851,57.615,5.678z M71.587,13.656c1.57,0.384,2.355,1.052,2.355,2.004
		v1.28c-0.42,1.336-1.205,2.004-2.355,2.004H59.73v10.335c0,1.521-0.742,2.499-2.227,2.932H56.91c-1.509,0-2.369-1.021-2.579-3.062
		V16.718c0.21-2.041,1.033-3.062,2.468-3.062H71.587z"/>
	<path fill="#333c76" d="M78.396,11.021c-1.695-0.024-2.685-0.94-2.969-2.746c0-1.497,0.939-2.344,2.82-2.542
		c0.099-0.012,0.204-0.019,0.315-0.019L94.26,5.733c1.435,0,2.294,0.903,2.579,2.709c0,1.497-0.94,2.363-2.82,2.598h-1.855v-0.019
		H78.396z M88.656,26.403v3.136c0,1.497-0.903,2.394-2.709,2.69c-1.497,0-2.363-0.983-2.598-2.95l0.019-10.483h0.019V15.66
		c0-1.497,0.902-2.394,2.709-2.69c1.496,0,2.362,0.983,2.598,2.95l-0.019,10.483H88.656z"/>
	<path fill="#333c76" d="M121.127,17.293c0.012,0.099,0.019,0.204,0.019,0.315l-0.019,9.667c0,0.545-0.13,1.009-0.39,1.392
		c-0.371,0.866-1.454,1.59-3.247,2.171c-1.794,0.582-3.485,0.906-5.075,0.975c-1.589,0.067-3.163-0.133-4.722-0.604
		c-1.559-0.47-3.291-1.552-5.195-3.247c-2.573-2.721-3.859-5.839-3.859-9.352c0-3.624,1.311-6.791,3.934-9.5
		c2.214-2.103,4.7-3.346,7.459-3.729c0.197-0.049,0.408-0.086,0.631-0.111h0.52c0.186-0.012,0.371-0.019,0.557-0.019V5.27h0.371
		l5.863-0.019c1.435,0,2.294,0.903,2.579,2.709c0,1.497-0.94,2.356-2.82,2.579h-0.557c-0.1,0.025-0.204,0.037-0.315,0.037H111.2
		c-1.658,0.161-3.093,0.755-4.305,1.781c-1.942,1.707-2.913,3.742-2.913,6.104v0.223c0,1.571,0.476,3.08,1.429,4.527
		c1.62,2.104,3.355,3.257,5.205,3.46c1.849,0.205,3.583-0.002,5.204-0.621l0.019-5.492v-1.466l-4.769-0.019
		c-1.436,0-2.295-0.903-2.579-2.709c0-1.497,0.939-2.362,2.82-2.598l7.236,0.019c1.435,0,2.294,0.903,2.579,2.709V17.293z"/>
	<path fill="#333c76" d="M125.544,5.622h14.881c1.447,0,2.275,0.946,2.486,2.839c0,1.312-0.866,2.14-2.598,2.486h-14.658
		c-1.534,0-2.4-0.989-2.598-2.969C123.058,6.804,123.886,6.018,125.544,5.622z M125.655,13.545h14.658
		c1.472,0,2.338,0.903,2.598,2.709c0,1.312-0.749,2.177-2.245,2.598h-12.172v8.034h11.931c1.336,0,2.164,0.872,2.486,2.616v0.111
		c-0.347,1.732-1.176,2.598-2.486,2.598h-14.528c-1.893,0-2.839-0.983-2.839-2.95V16.495
		C123.255,14.528,124.121,13.545,125.655,13.545z"/>
	<path fill="#333c76" d="M147.53,11.021c-1.695-0.024-2.685-0.94-2.969-2.746c0-1.497,0.939-2.344,2.82-2.542
		c0.099-0.012,0.204-0.019,0.315-0.019l15.697,0.019c1.435,0,2.294,0.903,2.579,2.709c0,1.497-0.94,2.363-2.82,2.598h-1.855v-0.019
		H147.53z M157.791,26.403v3.136c0,1.497-0.903,2.394-2.709,2.69c-1.497,0-2.363-0.983-2.598-2.95l0.019-10.483h0.019V15.66
		c0-1.497,0.902-2.394,2.709-2.69c1.496,0,2.362,0.983,2.598,2.95l-0.019,10.483H157.791z"/>
	<path fill="#333c76" d="M167.959,12.265V8.201c0-1.435,0.902-2.294,2.709-2.579c1.496,0,2.356,0.94,2.579,2.82v0.557
		c0.012,0.099,0.019,0.204,0.019,0.315l-0.019,20.28c0,1.436-0.903,2.295-2.709,2.579c-1.497,0-2.363-0.939-2.598-2.82
		L167.959,12.265z"/>
	<path fill="#333c76" d="M182.506,19.037l-4.175-5.882l-2.375-3.303c-0.842-1.163-0.612-2.387,0.687-3.674
		c1.212-0.878,2.461-0.618,3.748,0.779l0.315,0.445c0.074,0.074,0.142,0.161,0.204,0.26l4.898,6.884l3.247-4.416l2.375-3.284
		c0.841-1.163,2.078-1.33,3.711-0.501c1.212,0.878,1.354,2.146,0.427,3.804l-0.315,0.445c-0.05,0.087-0.111,0.18-0.186,0.278
		l-6.012,8.201l6.531,9.185c0.841,1.163,0.612,2.388-0.687,3.674c-1.213,0.878-2.468,0.624-3.767-0.761l-5.399-7.589l-5.622,7.682
		c-0.842,1.162-2.078,1.329-3.711,0.501c-1.213-0.878-1.361-2.152-0.445-3.822L182.506,19.037z"/>
</g>
</svg>
